<svg xmlns="http://www.w3.org/2000/svg" xmlns:xlink="http://www.w3.org/1999/xlink" viewBox="0 0 301.72 121.85">
  <defs>
    <linearGradient id="linear-gradient" x1="96.13" y1="25.21" x2="96.13" y2="4.31" gradientUnits="userSpaceOnUse">
      <stop offset="0" stop-color="#0e7fbd"/>
      <stop offset="1" stop-color="#19335b"/>
    </linearGradient>
    <linearGradient id="linear-gradient-2" x1="79.94" y1="30.99" x2="79.94" y2="18.7" gradientUnits="userSpaceOnUse">
      <stop offset="0" stop-color="#389dc6"/>
      <stop offset="1" stop-color="#134574"/>
    </linearGradient>
    <linearGradient id="linear-gradient-3" x1="72.76" x2="72.76" y2="117.81" gradientUnits="userSpaceOnUse">
      <stop offset="0.06" stop-color="#00c0e5"/>
      <stop offset="1" stop-color="#1c75bc"/>
    </linearGradient>
    <linearGradient id="linear-gradient-4" x1="59.09" y1="78.11" x2="59.09" y2="108.02" gradientUnits="userSpaceOnUse">
      <stop offset="0" stop-color="#0e7fbd"/>
      <stop offset="1" stop-color="#132f54"/>
    </linearGradient>
    <linearGradient id="linear-gradient-5" x1="76.31" y1="64.09" x2="76.31" y2="84.19" gradientUnits="userSpaceOnUse">
      <stop offset="0.1" stop-color="#429ac1"/>
      <stop offset="1" stop-color="#134574"/>
    </linearGradient>
  </defs>
  <g id="Layer_2" data-name="Layer 2">
    <g id="Logos">
      <g>
        <g>
          <path d="M83.91,4.31A36.21,36.21,0,0,0,80.3,6.39a26.67,26.67,0,0,0-9.4,10,20,20,0,0,0-1.53,3.88,36.44,36.44,0,0,1,21.28.16,10.21,10.21,0,0,1,1.59-2.17,12.32,12.32,0,0,1,4.9-3.17,22.73,22.73,0,0,1,17.49.73,14.14,14.14,0,0,1,7.6,7.34,11.51,11.51,0,0,1,.67,2.09S123.54,6,83.91,4.31Z" style="fill: url(#linear-gradient)"/>
          <path d="M69.37,20.23a16.07,16.07,0,0,0,.43,9.93c.15.42.27.74.89.74,5.41,0,10.82.05,16.22.08h4.2c-.31-1.09-.58-2.13-.9-3.16a9.25,9.25,0,0,1,.44-7.43A36.44,36.44,0,0,0,69.37,20.23Z" style="fill: url(#linear-gradient-2)"/>
          <path d="M141.19,17.47a34.26,34.26,0,0,0-10.33-9.73A52.5,52.5,0,0,0,96,.55a40.39,40.39,0,0,0-12.1,3.76c39.63,1.68,39,20.9,39,20.9a8.3,8.3,0,0,1-1.48,6.73,12.61,12.61,0,0,1-6.53,4.51,27.61,27.61,0,0,1-8.93,1.3c-6.38.06-12.77,0-19.16,0l-31.95-.09a84.72,84.72,0,0,0-11.26.5,54.86,54.86,0,0,0-21.82,7.62A48.51,48.51,0,0,0,6.92,59.73,37.48,37.48,0,0,0,.09,78.57,33.45,33.45,0,0,0,3.64,96.36a36.77,36.77,0,0,0,14.94,15.37,45.32,45.32,0,0,0,13.35,5,47.24,47.24,0,0,0,8.22,1,52.55,52.55,0,0,0,17-2.16,55.9,55.9,0,0,0,16-7.59c-43.86-4-45.91-29.91-45.91-29.91a13.7,13.7,0,0,1-.44-3.82,16.71,16.71,0,0,1,5.1-11.62A22.12,22.12,0,0,1,45.5,56.21a68.79,68.79,0,0,1,7.73-.28c7.57,0,15.15.12,22.72.13q17.86,0,35.75-.07a43.18,43.18,0,0,0,18-3.61,28.25,28.25,0,0,0,12.15-9.85,20.56,20.56,0,0,0,3.59-9.9A22.91,22.91,0,0,0,141.19,17.47Z" style="fill: url(#linear-gradient-3)"/>
          <path d="M61.25,83.77h0a20.66,20.66,0,0,1-3.71,2.95,22.15,22.15,0,0,1-17.68,3,17.83,17.83,0,0,1-9.2-5.46,14.69,14.69,0,0,1-3.4-6.13S29.31,104,73.17,108c.67-.47,1.33-1,2-1.45a43.58,43.58,0,0,0,9.25-9.63,37.87,37.87,0,0,0,6.51-16.1C77.63,85.83,61.25,83.77,61.25,83.77Z" style="fill: url(#linear-gradient-4)"/>
          <path d="M90.06,64.84c-.12-.46-.35-.5-.7-.5l-3.16,0-16.79-.2H64.82c.33,1.26.6,2.47,1,3.64a14.23,14.23,0,0,1-.68,10.53,19.18,19.18,0,0,1-3.85,5.49h0s16.38,2.06,29.66-2.93a38.11,38.11,0,0,0,.43-4.45A39.15,39.15,0,0,0,90.06,64.84Z" style="fill: url(#linear-gradient-5)"/>
        </g>
        <text transform="translate(104.59 95.17)" style="font-size: 43.93437957763672px;fill: #414042;font-family: MuseoSans-300, Museo Sans;font-weight: 300;letter-spacing: 0.024995107289712874em">limbitless</text>
        <text transform="translate(106.95 117.39)" style="font-size: 17.212299346923828px;fill: #939598;font-family: Klavika-Regular, Klavika;letter-spacing: 0.48801744464496694em">SO<tspan x="36.8" y="0" style="letter-spacing: 0.4629967281317506em">L</tspan><tspan x="53.38" y="0">UTIONS</tspan></text>
      </g>
    </g>
  </g>
</svg>
