<svg xmlns="http://www.w3.org/2000/svg" viewBox="0 0 298.69 117.81">
  <g id="Layer_2" data-name="Layer 2">
    <g id="Logos">
      <g>
        <g>
          <path d="M141.19,17.47a34.26,34.26,0,0,0-10.33-9.73A52.5,52.5,0,0,0,96,.55a40.39,40.39,0,0,0-12.1,3.76A36.21,36.21,0,0,0,80.3,6.39a26.67,26.67,0,0,0-9.4,10,20,20,0,0,0-1.53,3.88,16.07,16.07,0,0,0,.43,9.93c.15.42.27.74.89.74,5.41,0,10.82.05,16.22.08h4.2c-.31-1.09-.58-2.13-.9-3.16a9.25,9.25,0,0,1,.44-7.43,10.21,10.21,0,0,1,1.59-2.17,12.32,12.32,0,0,1,4.9-3.17,22.73,22.73,0,0,1,17.49.73,14.14,14.14,0,0,1,7.6,7.34,11.51,11.51,0,0,1,.67,2.09,8.3,8.3,0,0,1-1.48,6.73,12.61,12.61,0,0,1-6.53,4.51,27.61,27.61,0,0,1-8.93,1.3c-6.38.06-12.77,0-19.16,0l-31.95-.09a84.72,84.72,0,0,0-11.26.5,54.86,54.86,0,0,0-21.82,7.62A48.51,48.51,0,0,0,6.92,59.73,37.48,37.48,0,0,0,.09,78.57,33.45,33.45,0,0,0,3.64,96.36a36.77,36.77,0,0,0,14.94,15.37,45.32,45.32,0,0,0,13.35,5,47.24,47.24,0,0,0,8.22,1,52.55,52.55,0,0,0,17-2.16,55.9,55.9,0,0,0,16-7.59c.67-.47,1.33-1,2-1.45a43.58,43.58,0,0,0,9.25-9.63,38.19,38.19,0,0,0,6.94-20.55,39.15,39.15,0,0,0-1.28-11.55c-.12-.46-.35-.5-.7-.5l-3.16,0-16.79-.2H64.82c.33,1.26.6,2.47,1,3.64a14.23,14.23,0,0,1-.68,10.53,19.18,19.18,0,0,1-3.85,5.49,20.66,20.66,0,0,1-3.71,2.95,22.15,22.15,0,0,1-17.68,3,17.83,17.83,0,0,1-9.2-5.46,14.69,14.69,0,0,1-3.4-6.13,13.7,13.7,0,0,1-.44-3.82,16.71,16.71,0,0,1,5.1-11.62A22.12,22.12,0,0,1,45.5,56.21a68.79,68.79,0,0,1,7.73-.28c7.57,0,15.15.12,22.72.13q17.86,0,35.75-.07a43.18,43.18,0,0,0,18-3.61,28.25,28.25,0,0,0,12.15-9.85,20.56,20.56,0,0,0,3.59-9.9A22.91,22.91,0,0,0,141.19,17.47Z" style="fill: #fff"/>
          <g>
            <path d="M108,64.28h3v25c0,2.9,1.32,3.34,2.46,3.34a7.43,7.43,0,0,0,.75,0v2.68a8.35,8.35,0,0,1-1.1.08c-1.85,0-5.1-.57-5.1-5.4Z" style="fill: #fff"/>
            <path d="M120.05,64.28h3.12V68h-3.12Zm.09,8.79h3v22.1h-3Z" style="fill: #fff"/>
            <path d="M131.43,73.07h2.95v3.3a17.28,17.28,0,0,1-.09,1.75h.09a9,9,0,0,1,8-5.58c4.09,0,6.2,1.89,6.86,5.54h.08a9,9,0,0,1,8.13-5.54c5.36,0,7.34,3.12,7.34,8.57V95.17h-3V81.86c0-3.61-.75-6.59-4.79-6.59-3.38,0-6.15,3-7,6.23a10.5,10.5,0,0,0-.4,3.21V95.17h-3V81.86c0-3.34-.48-6.59-4.65-6.59-3.61,0-6.33,3.12-7.25,6.5a12.8,12.8,0,0,0-.31,2.94V95.17h-3Z" style="fill: #fff"/>
            <path d="M172.78,64.28h3V75a17.7,17.7,0,0,1-.09,1.8h.09a8,8,0,0,1,7.52-4.26c5.93,0,9.62,4.75,9.62,11.6s-4.18,11.55-10,11.55a8.06,8.06,0,0,1-7.25-4.3h-.08s.08.75.08,1.8v2h-2.89Zm9.92,28.78c3.91,0,7.12-3.3,7.12-8.92,0-5.4-2.86-8.87-7-8.87-3.69,0-7.17,2.63-7.17,8.91C175.67,88.62,178,93.06,182.7,93.06Z" style="fill: #fff"/>
            <path d="M199.66,64.28h3.12V68h-3.12Zm.09,8.79h3v22.1h-3Z" style="fill: #fff"/>
            <path d="M211.88,75.84H209V73.33h2.94V67h2.94v6.37h5.54v2.51h-5.54v11c0,5.18,3.3,5.84,5,5.84a5.68,5.68,0,0,0,1-.08v2.68a8.61,8.61,0,0,1-1.28.08c-2.54,0-7.68-.83-7.68-8.21Z" style="fill: #fff"/>
            <path d="M226.64,64.28h3v25c0,2.9,1.32,3.34,2.47,3.34a7.35,7.35,0,0,0,.74,0v2.68a8.16,8.16,0,0,1-1.1.08c-1.84,0-5.09-.57-5.09-5.4Z" style="fill: #fff"/>
            <path d="M248.16,72.54c6.11,0,9.23,4.7,9.23,10.19,0,.53-.09,1.54-.09,1.54h-17c.14,5.67,4,8.74,8.57,8.74a10.29,10.29,0,0,0,6.72-2.67L257,92.62a12.65,12.65,0,0,1-8.17,3.07,11.16,11.16,0,0,1-11.55-11.55C237.27,76.89,242.19,72.54,248.16,72.54Zm6.2,9.27c-.18-4.61-3-6.76-6.28-6.76a7.48,7.48,0,0,0-7.6,6.76Z" style="fill: #fff"/>
            <path d="M264,90.34A9.49,9.49,0,0,0,270.61,93c2.38,0,4.44-1.18,4.44-3.51,0-4.83-11.9-3.65-11.9-10.85,0-4,3.55-6.11,7.55-6.11,4.66,0,6.81,2.42,6.81,2.42l-1.36,2.28a7.85,7.85,0,0,0-5.54-2c-2.24,0-4.39,1-4.39,3.43,0,4.88,11.91,3.56,11.91,10.85,0,3.6-3.12,6.19-7.56,6.19a11.26,11.26,0,0,1-8.17-3.2Z" style="fill: #fff"/>
            <path d="M284.59,90.34A9.49,9.49,0,0,0,291.18,93c2.37,0,4.43-1.18,4.43-3.51,0-4.83-11.9-3.65-11.9-10.85,0-4,3.56-6.11,7.55-6.11,4.66,0,6.81,2.42,6.81,2.42l-1.36,2.28a7.84,7.84,0,0,0-5.53-2c-2.24,0-4.4,1-4.4,3.43,0,4.88,11.91,3.56,11.91,10.85,0,3.6-3.12,6.19-7.56,6.19a11.26,11.26,0,0,1-8.17-3.2Z" style="fill: #fff"/>
          </g>
          <g>
            <path d="M111.39,117.56A9.67,9.67,0,0,1,108,117l.24-1.2a11.12,11.12,0,0,0,3.2.5c1.84,0,2.22-.49,2.22-1.79,0-1.55,0-1.69-2.37-2.22-2.78-.62-3.1-1.16-3.1-3.53,0-2,.82-3,3.66-3a12.6,12.6,0,0,1,3.1.38l-.12,1.25a14.47,14.47,0,0,0-2.94-.32c-1.88,0-2.22.37-2.22,1.7,0,1.58,0,1.65,2.27,2.22,3,.76,3.2,1.2,3.2,3.44C115.12,116.43,114.54,117.56,111.39,117.56Z" style="fill: #fff"/>
            <path d="M134.14,114.09c0,1.91-1.19,3.47-4.15,3.47s-4.15-1.56-4.15-3.47v-4.86c0-1.91,1.19-3.47,4.15-3.47s4.15,1.56,4.15,3.47Zm-6.82,0c0,1.42.87,2.21,2.67,2.21s2.67-.79,2.67-2.21v-4.78c0-1.41-.86-2.2-2.67-2.2s-2.67.79-2.67,2.2Z" style="fill: #fff"/>
            <path d="M146.69,116.07h5v1.32h-6.45V105.93h1.48Z" style="fill: #fff"/>
            <path d="M169.82,105.93v8.24c0,1.88-1.08,3.39-4.06,3.39s-4.06-1.51-4.06-3.39v-8.24h1.48v8.16c0,1.41.77,2.15,2.58,2.15s2.58-.74,2.58-2.15v-8.16Z" style="fill: #fff"/>
            <path d="M183.37,107.26h-3.43v-1.33h8.33v1.33h-3.42v10.13h-1.48Z" style="fill: #fff"/>
            <path d="M200.05,117.39h-1.48V105.93h1.48Z" style="fill: #fff"/>
            <path d="M219.5,114.09c0,1.91-1.19,3.47-4.15,3.47s-4.15-1.56-4.15-3.47v-4.86c0-1.91,1.19-3.47,4.15-3.47s4.15,1.56,4.15,3.47Zm-6.82,0c0,1.42.86,2.21,2.67,2.21s2.67-.79,2.67-2.21v-4.78c0-1.41-.87-2.2-2.67-2.2s-2.67.79-2.67,2.2Z" style="fill: #fff"/>
            <path d="M232,107.63v9.76h-1.41V105.93h2l5,9.81v-9.81H239v11.46h-2Z" style="fill: #fff"/>
            <path d="M253.3,117.56a9.71,9.71,0,0,1-3.41-.6l.24-1.2a11.12,11.12,0,0,0,3.2.5c1.85,0,2.22-.49,2.22-1.79,0-1.55,0-1.69-2.37-2.22-2.77-.62-3.1-1.16-3.1-3.53,0-2,.83-3,3.67-3a12.66,12.66,0,0,1,3.1.38l-.12,1.25a14.56,14.56,0,0,0-3-.32c-1.87,0-2.22.37-2.22,1.7,0,1.58,0,1.65,2.27,2.22,3,.76,3.2,1.2,3.2,3.44C257,116.43,256.45,117.56,253.3,117.56Z" style="fill: #fff"/>
          </g>
        </g>
        <path d="M269,102.44a3,3,0,1,1-2.88,3A2.93,2.93,0,0,1,269,102.44Zm0,5.59a2.63,2.63,0,1,0-2.51-2.63A2.55,2.55,0,0,0,269,108Zm-1-3.94h-.3v-.32h1.39a.9.9,0,0,1,.95,1,.85.85,0,0,1-.63.87v0a.37.37,0,0,1,.16.17l.41.84c.05.11.15.11.24.11h.08V107h-.17c-.24,0-.35,0-.47-.24l-.46-.93c-.09-.17-.16-.2-.31-.2h-.53V107H268Zm1.05,1.27a.58.58,0,0,0,.62-.64.58.58,0,0,0-.62-.63h-.69v1.27Z" style="fill: #fff"/>
      </g>
    </g>
  </g>
</svg>
